<?xml version="1.0" ?><!DOCTYPE svg  PUBLIC '-//W3C//DTD SVG 1.1//EN'  'http://www.w3.org/Graphics/SVG/1.1/DTD/svg11.dtd'><svg enable-background="new 0 0 50 50" id="Layer_1" version="1.1" viewBox="0 0 50 50" xml:space="preserve" xmlns="http://www.w3.org/2000/svg" xmlns:xlink="http://www.w3.org/1999/xlink"><g id="_x5B____x3E___x5D__1_"><g><path d="M39.7,19c0,0-0.3-2.1-1.2-3c-1.1-1.2-2.4-1.2-3-1.3C31.3,14.5,25,14.5,25,14.5s-6.3,0-10.5,0.3    c-0.6,0.1-1.9,0.1-3,1.3c-0.9,0.9-1.2,3-1.2,3s-0.3,2-0.3,4.4v3c0,2.4,0.3,4.5,0.3,4.5s0.3,2.1,1.2,3c1.1,1.2,2.6,1.2,3.3,1.3    c2.4,0.2,10.2,0.2,10.2,0.2s6.3,0.1,10.5-0.2c0.6-0.1,1.9-0.1,3-1.3c0.9-0.9,1.2-3,1.2-3s0.3-2.1,0.3-4.5v-3    C40,21.1,39.7,19,39.7,19z M21,29v-8l8,4L21,29z" fill="#CF3427"/></g></g><path d="M25,1C11.7,1,1,11.7,1,25s10.7,24,24,24s24-10.7,24-24S38.3,1,25,1z M25,44C14.5,44,6,35.5,6,25S14.5,6,25,6  s19,8.5,19,19S35.5,44,25,44z" fill="#CF3427"/></svg>