<?xml version="1.0" ?><!DOCTYPE svg  PUBLIC '-//W3C//DTD SVG 1.1//EN'  'http://www.w3.org/Graphics/SVG/1.1/DTD/svg11.dtd'><svg enable-background="new 0 0 50 50" id="Layer_1" version="1.1" viewBox="0 0 50 50" xml:space="preserve" xmlns="http://www.w3.org/2000/svg" xmlns:xlink="http://www.w3.org/1999/xlink"><g><path d="M20.3,10.5c-3.7,1.3-6.9,4.1-8.7,7.6c-0.6,1.2-1.1,2.5-1.3,3.9c-0.7,3.3-0.2,6.9,1.3,9.9   c1,2,2.4,3.7,4.2,5.1c1.6,1.3,3.5,2.3,5.6,2.8c2.6,0.7,5.3,0.7,7.8,0.1c2.3-0.5,4.5-1.6,6.3-3.3c1.9-1.7,3.2-3.9,3.9-6.4   c0.8-2.6,0.9-5.4,0.4-8.1c-4.8,0-9.6,0-14.4,0c0,2,0,4,0,6c2.8,0,5.6,0,8.3,0c-0.3,1.9-1.5,3.7-3.1,4.7c-1,0.7-2.2,1.1-3.4,1.3   c-1.2,0.2-2.5,0.2-3.7,0c-1.2-0.2-2.4-0.8-3.4-1.5c-1.6-1.1-2.9-2.8-3.5-4.7c-0.7-1.9-0.7-4,0-6c0.5-1.3,1.2-2.6,2.2-3.6   c1.2-1.3,2.8-2.2,4.6-2.5c1.5-0.3,3-0.3,4.5,0.2c1.2,0.4,2.4,1.1,3.3,1.9c0.9-0.9,1.9-1.9,2.8-2.8c0.5-0.5,1-1,1.5-1.5   c-1.4-1.3-3.1-2.4-4.9-3.1C27.3,9.4,23.6,9.4,20.3,10.5z" fill="#FFFFFF"/><g><path d="M20.3,10.5c3.3-1.1,7-1.1,10.3,0.1c1.8,0.7,3.5,1.7,4.9,3.1c-0.5,0.5-1,1-1.5,1.5    c-0.9,0.9-1.9,1.9-2.8,2.8c-0.9-0.9-2.1-1.6-3.3-1.9c-1.4-0.4-3-0.5-4.5-0.2c-1.7,0.4-3.3,1.3-4.6,2.5c-1,1-1.8,2.3-2.2,3.6    c-1.7-1.3-3.3-2.6-5-3.9C13.4,14.6,16.6,11.8,20.3,10.5z" fill="#EA4335"/></g><g><path d="M10.3,22c0.3-1.3,0.7-2.6,1.3-3.9c1.7,1.3,3.3,2.6,5,3.9c-0.7,1.9-0.7,4,0,6c-1.7,1.3-3.3,2.6-5,3.9    C10.1,28.8,9.6,25.3,10.3,22z" fill="#FBBC05"/></g><g><path d="M25.3,22.1c4.8,0,9.6,0,14.4,0c0.5,2.7,0.4,5.5-0.4,8.1c-0.7,2.4-2,4.6-3.9,6.4c-1.6-1.3-3.2-2.5-4.9-3.8    c1.6-1.1,2.7-2.8,3.1-4.7c-2.8,0-5.6,0-8.3,0C25.3,26.1,25.3,24.1,25.3,22.1z" fill="#4285F4"/></g><g><path d="M11.6,31.9c1.7-1.3,3.3-2.6,5-3.9c0.6,1.9,1.9,3.6,3.5,4.7c1,0.7,2.2,1.2,3.4,1.5c1.2,0.2,2.4,0.2,3.7,0    c1.2-0.2,2.4-0.7,3.4-1.3c1.6,1.3,3.2,2.5,4.9,3.8c-1.8,1.6-3.9,2.7-6.3,3.3c-2.6,0.6-5.3,0.6-7.8-0.1c-2-0.5-3.9-1.5-5.6-2.8    C14.1,35.6,12.6,33.8,11.6,31.9z" fill="#34A853"/></g></g><path d="M25,1C11.7,1,1,11.7,1,25s10.7,24,24,24s24-10.7,24-24S38.3,1,25,1z M25,44C14.5,44,6,35.5,6,25S14.5,6,25,6  s19,8.5,19,19S35.5,44,25,44z" fill="#4285F4"/></svg>